# xmcd
#
# Track frame offsets:
# 150
# 28338
# 45176
# 62939
# 90797
# 112429
# 125170
# 149824
# 164538
# 187499
# 218479
#
# Disc length: 3228 seconds
#
#
# Revision: 0
# Processed by: cddbd v1.5.1PL0 Copyright (c) Steve Scherf et al.
# Submitted via: FreeRIP 2.92 
#
DISCID=af0c9a0b
DTITLE=Black Harvest - Shrine Of Hours
DYEAR=2003
DGENRE=Black Metal
TTITLE0=Land Of the Drowned
TTITLE1=Victim
TTITLE2=Funeral Feast
TTITLE3=A Mass Grave
TTITLE4=the Grey Hours
TTITLE5=Flood
TTITLE6=Stranger Beings
TTITLE7=Babylon
TTITLE8=Wrath
TTITLE9=the Lamb's Revenge
TTITLE10=Shrine Of Hours
EXTD=
EXTT0=
EXTT1=
EXTT2=
EXTT3=
EXTT4=
EXTT5=
EXTT6=
EXTT7=
EXTT8=
EXTT9=
EXTT10=
PLAYORDER=
